<svg id="visual" viewBox="0 0 1600 900" width="1600" height="900" xmlns="http://www.w3.org/2000/svg" xmlns:xlink="http://www.w3.org/1999/xlink" version="1.1"><rect x="0" y="0" width="1600" height="900" fill="#000"></rect><defs><linearGradient id="grad1_0" x1="43.8%" y1="100%" x2="100%" y2="0%"><stop offset="14.444444444444446%" stop-color="#000000" stop-opacity="1"></stop><stop offset="85.55555555555554%" stop-color="#000000" stop-opacity="1"></stop></linearGradient></defs><defs><linearGradient id="grad2_0" x1="0%" y1="100%" x2="56.3%" y2="0%"><stop offset="14.444444444444446%" stop-color="#000000" stop-opacity="1"></stop><stop offset="85.55555555555554%" stop-color="#000000" stop-opacity="1"></stop></linearGradient></defs><g transform="translate(1600, 900)"><path d="M-810 0C-787.5 -101 -765 -202.1 -729.9 -302.3C-694.7 -402.5 -646.8 -501.9 -572.8 -572.8C-498.7 -643.6 -398.3 -685.8 -298.5 -720.6C-198.7 -755.4 -99.3 -782.7 0 -810L0 0Z" fill="#FFA500"></path></g><g transform="translate(0, 0)"><path d="M810 0C783.4 100.7 756.8 201.4 719.7 298.1C682.6 394.8 635.1 487.6 566.4 566.4C497.7 645.2 407.9 710.1 310 748.3C212.1 786.6 106 798.3 0 810L0 0Z" fill="#FFA500"></path></g></svg>