<svg width="114" height="87" viewBox="0 0 114 87" fill="none" xmlns="http://www.w3.org/2000/svg">
<g filter="url(#filter0_d)">
<path d="M102.048 5.51133C94.1451 -0.16224 85.1503 0.000500022 85.1503 0.000500022C88.4691 1.1277 91.258 5.11274 91.2922 8.465C91.3265 11.8185 88.1081 15.1051 81.6658 18.2265C75.2257 21.3466 67.9536 20.4148 66.9239 19.6172C65.8967 18.8212 66.0962 17.3648 65.3663 14.4062C64.6352 11.4521 61.3247 8.99163 61.3247 8.99163C62.1136 10.2679 62.646 12.9965 62.7038 13.6165C62.7757 14.4066 62.722 15.3046 61.9191 14.7986C60.6601 14.0089 58.3648 13.6165 57.0026 13.6165C55.6404 13.6165 53.3447 14.0089 52.0833 14.7986C51.2791 15.3046 51.2254 14.4066 51.2956 13.6165C51.3534 12.9969 51.8879 10.2704 52.6752 8.99163C52.6752 8.99163 49.365 11.4525 48.6352 14.4062C47.9062 17.3648 48.1036 18.8208 47.0739 19.6172C46.0462 20.4168 38.7758 21.3458 32.3361 18.2265C25.8955 15.1051 22.6729 11.8181 22.7072 8.465C22.7394 5.11274 25.5279 1.12893 28.8491 0.000500022C28.8491 0.000500022 19.8539 -0.164718 11.9507 5.51133C4.05167 11.1853 -0.0985912 19.8208 0.00177834 25.2651C0.100909 30.7086 1.29502 42.0586 10.4253 49.6293C10.4253 49.6293 9.45304 43.249 11.1271 39.409C12.8003 35.5693 14.7697 34.0935 17.7238 34.0935C17.7238 34.0935 17.3314 37.9361 20.0885 43.1511C22.8447 48.3687 26.6827 52.4062 26.6827 52.4062C26.6827 52.4062 29.441 40.4924 39.7775 39.8038C50.1122 39.1132 56.9968 62.9211 57.0014 62.9359C57.0055 62.9211 63.8893 39.1132 74.2236 39.8038C84.5621 40.4932 87.3167 52.4062 87.3167 52.4062C87.3167 52.4062 91.1568 48.3704 93.9138 43.1511C96.6705 37.9361 96.2802 34.0935 96.2802 34.0935C99.2334 34.0935 101.199 35.5718 102.874 39.409C104.546 43.249 103.574 49.6293 103.574 49.6293C112.702 42.0586 113.897 30.7074 113.998 25.2651C114.099 19.8208 109.95 11.1857 102.048 5.51133Z" fill="url(#paint0_linear)"/>
</g>
<g filter="url(#filter1_d)">
<path d="M54.256 74.984L49.968 80.776H34.288L30 74.984V67.688L34.288 61.896H54.256L50.032 66.12H37.616L36.24 67.688V69.416H50.128L54.256 74.984ZM47.984 74.984L46.64 73.256H36.24V74.984L37.616 76.584H46.64L47.984 74.984ZM80.3043 78.696L78.1923 80.84H73.0723L70.9603 78.696V73.608L73.0723 71.464H78.1923L80.3043 73.608V78.696ZM80.3043 61.96L62.2563 80.84H56.6562L74.7043 61.96H80.3043ZM66.1603 69.32L64.0163 71.464H58.8323L56.6562 69.32V64.136L58.8003 61.96H64.0163L66.1603 64.136V69.32ZM77.4883 78.76V73.576H73.7763V78.76H77.4883ZM63.3123 69.352V64.072H59.5363V69.352H63.3123Z" fill="url(#paint1_linear)"/>
</g>
<defs>
<filter id="filter0_d" x="0" y="0" width="114" height="66.9359" filterUnits="userSpaceOnUse" color-interpolation-filters="sRGB">
<feFlood flood-opacity="0" result="BackgroundImageFix"/>
<feColorMatrix in="SourceAlpha" type="matrix" values="0 0 0 0 0 0 0 0 0 0 0 0 0 0 0 0 0 0 127 0"/>
<feOffset dy="4"/>
<feColorMatrix type="matrix" values="0 0 0 0 0.629167 0 0 0 0 0.296746 0 0 0 0 0.104861 0 0 0 1 0"/>
<feBlend mode="normal" in2="BackgroundImageFix" result="effect1_dropShadow"/>
<feBlend mode="normal" in="SourceGraphic" in2="effect1_dropShadow" result="shape"/>
</filter>
<filter id="filter1_d" x="30" y="61.896" width="50.3043" height="20.944" filterUnits="userSpaceOnUse" color-interpolation-filters="sRGB">
<feFlood flood-opacity="0" result="BackgroundImageFix"/>
<feColorMatrix in="SourceAlpha" type="matrix" values="0 0 0 0 0 0 0 0 0 0 0 0 0 0 0 0 0 0 127 0"/>
<feOffset dy="2"/>
<feColorMatrix type="matrix" values="0 0 0 0 0.629167 0 0 0 0 0.296746 0 0 0 0 0.104861 0 0 0 1 0"/>
<feBlend mode="normal" in2="BackgroundImageFix" result="effect1_dropShadow"/>
<feBlend mode="normal" in="SourceGraphic" in2="effect1_dropShadow" result="shape"/>
</filter>
<linearGradient id="paint0_linear" x1="10.2841" y1="-0.540009" x2="120.694" y2="28.5171" gradientUnits="userSpaceOnUse">
<stop stop-color="#E8AB30"/>
<stop offset="1" stop-color="#E65D22"/>
</linearGradient>
<linearGradient id="paint1_linear" x1="34.8714" y1="54.7254" x2="87.6223" y2="67.6588" gradientUnits="userSpaceOnUse">
<stop stop-color="#E8AB30"/>
<stop offset="1" stop-color="#E65D22"/>
</linearGradient>
</defs>
</svg>
